<svg width="14" height="15" viewBox="0 0 14 15" fill="none" xmlns="http://www.w3.org/2000/svg">
<path d="M13.1278 3.48797V6.05566C13.1278 6.05566 12.1956 6.13489 11.3978 5.91148C10.1908 5.57353 9.52324 4.95131 9.52324 4.95131V10.8137C9.52324 10.8137 9.38756 12.1373 8.51412 13.2648C7.73629 14.2688 6.2846 14.9432 5.19793 14.995C2.89102 15.1048 -0.168911 13.409 0.00727689 10.237C0.183465 7.06494 2.34126 5.84875 3.90025 5.57144C4.64853 5.43834 5.48623 5.47893 5.48623 5.47893V8.07422C5.48623 8.07422 3.90028 7.93004 3.17937 8.79513C2.58834 9.50437 2.58674 10.2694 2.74682 10.8137C3.46774 13.2648 6.92812 12.5439 6.92812 10.3811L6.92795 0H9.52324C9.52324 0 9.5234 1.58601 10.5327 2.59528C11.542 3.60456 13.1278 3.48797 13.1278 3.48797Z" fill="black"/>
</svg>
