<svg width="2135" height="1653" viewBox="0 0 2135 1653" fill="none" xmlns="http://www.w3.org/2000/svg">
<path d="M264 1653V1460H457V1653H264Z" fill="#FFCC00"/>
<path d="M1156.5 1652.9H995V1459.9L1156.5 1652.9Z" fill="black"/>
<path d="M1197 1652.5L230 512.404V1653H0V0L1030 1216.9V197H1542.25C1646.5 197 1744.5 266.904 1770 362H1197V1652.5Z" fill="black"/>
<path d="M765 1V856.404L995 1128.9V161.904H1542.25C1700.15 161.904 1814 280.387 1814 433.5C1814 506.165 1774.72 590.264 1724.7 630.024C1676.04 668.413 1611.76 688 1532 688H1232V856H1532C1703.41 856 1926.72 932.209 1935.86 1136.26C1945.5 1240 1887.07 1330.87 1824.76 1376.97C1741.28 1441.03 1639.37 1460 1536.65 1460L1232 1459.9V1652.9L1551 1653C1688.89 1653 1802.92 1628.62 1894.63 1573.29C2100.45 1449.11 2204.55 1182.52 2082.78 962.091C2030.51 867.49 1949.18 799.244 1850.5 754C1901.87 718.353 1942.35 673.264 1972.09 618.423C2003.18 562.211 2018.73 500.515 2018.73 433.334C2018.73 374.38 2003.86 311.998 1974.12 246.189C1944.38 179.009 1895.04 122.111 1826.09 75.4958C1758.5 28.8809 1664.26 1 1548 1H765Z" fill="black"/>
<path d="M1156.5 1652.9H995V1459.9L1156.5 1652.9Z" fill="black"/>
<path d="M1197 1652.5L230 512.404V1653H0V0L1030 1216.9V197H1542.25C1646.5 197 1744.5 266.904 1770 362H1197V1652.5Z" fill="black"/>
<path d="M765 1V856.404L995 1128.9V161.904H1542.25C1700.15 161.904 1814 280.387 1814 433.5C1814 506.165 1774.72 590.264 1724.7 630.024C1676.04 668.413 1611.76 688 1532 688H1232V856H1532C1703.41 856 1926.72 932.209 1935.86 1136.26C1945.5 1240 1887.07 1330.87 1824.76 1376.97C1741.28 1441.03 1639.37 1460 1536.65 1460L1232 1459.9V1652.9L1551 1653C1688.89 1653 1802.92 1628.62 1894.63 1573.29C2100.45 1449.11 2204.55 1182.52 2082.78 962.091C2030.51 867.49 1949.18 799.244 1850.5 754C1901.87 718.353 1942.35 673.264 1972.09 618.423C2003.18 562.211 2018.73 500.515 2018.73 433.334C2018.73 374.38 2003.86 311.998 1974.12 246.189C1944.38 179.009 1895.04 122.111 1826.09 75.4958C1758.5 28.8809 1664.26 1 1548 1H765Z" fill="black"/>
</svg>
