<svg width="250" height="194" viewBox="0 0 250 194" fill="none" xmlns="http://www.w3.org/2000/svg">
<path d="M30.9167 193.581V170.979H53.5187V193.581H30.9167Z" fill="#FFCC00"/>
<path d="M135.436 193.57H116.523V170.968L135.436 193.57Z" fill="black"/>
<path d="M140.179 193.522L26.935 60.007V193.581H0V0L120.622 142.51V23.0704H180.612C192.82 23.0704 204.296 31.2568 207.283 42.3934H140.179V193.522Z" fill="black"/>
<path d="M89.5882 0.117109V100.292L116.523 132.205V18.9604H180.612C199.102 18.9604 212.435 32.8358 212.435 50.7667C212.435 59.2763 207.836 69.1251 201.978 73.7813C196.279 78.277 188.751 80.5709 179.411 80.5709H144.278V100.245H179.411C199.484 100.245 225.636 109.17 226.707 133.066C227.835 145.215 220.993 155.856 213.695 161.256C203.919 168.758 191.985 170.979 179.956 170.979L144.278 170.968V193.57L181.636 193.581C197.784 193.581 211.138 190.726 221.878 184.246C245.981 169.703 258.173 138.483 243.912 112.669C237.791 101.591 228.267 93.5985 216.71 88.3C222.726 84.1255 227.466 78.8452 230.949 72.4228C234.59 65.8399 236.411 58.6147 236.411 50.7473C236.411 43.8432 234.67 36.5377 231.187 28.8309C227.704 20.9635 221.925 14.3002 213.852 8.84122C205.936 3.38221 194.899 0.117109 181.284 0.117109H89.5882Z" fill="black"/>
<path d="M135.436 193.57H116.523V170.968L135.436 193.57Z" fill="black"/>
<path d="M140.179 193.522L26.935 60.007V193.581H0V0L120.622 142.51V23.0704H180.612C192.82 23.0704 204.296 31.2568 207.283 42.3934H140.179V193.522Z" fill="black"/>
<path d="M89.5882 0.117109V100.292L116.523 132.205V18.9604H180.612C199.102 18.9604 212.435 32.8358 212.435 50.7667C212.435 59.2763 207.836 69.1251 201.978 73.7813C196.279 78.277 188.751 80.5709 179.411 80.5709H144.278V100.245H179.411C199.484 100.245 225.636 109.17 226.707 133.066C227.835 145.215 220.993 155.856 213.695 161.256C203.919 168.758 191.985 170.979 179.956 170.979L144.278 170.968V193.57L181.636 193.581C197.784 193.581 211.138 190.726 221.878 184.246C245.981 169.703 258.173 138.483 243.912 112.669C237.791 101.591 228.267 93.5985 216.71 88.3C222.726 84.1255 227.466 78.8452 230.949 72.4228C234.59 65.8399 236.411 58.6147 236.411 50.7473C236.411 43.8432 234.67 36.5377 231.187 28.8309C227.704 20.9635 221.925 14.3002 213.852 8.84122C205.936 3.38221 194.899 0.117109 181.284 0.117109H89.5882Z" fill="black"/>
</svg>
