<svg width="32" height="25" viewBox="0 0 32 25" fill="none" xmlns="http://www.w3.org/2000/svg">
<path d="M3.95734 24.7783V21.8853H6.8504V24.7783H3.95734Z" fill="#FFCC00"/>
<path d="M17.3358 24.7769H14.915V21.8839L17.3358 24.7769Z" fill="black"/>
<path d="M17.9429 24.7709L3.44768 7.6809V24.7783H0V0L15.4396 18.2413V2.95302H23.1183C24.6809 2.95302 26.1499 4.00087 26.5322 5.42635H17.9429V24.7709Z" fill="black"/>
<path d="M11.4673 0.0149899V12.8374L14.915 16.9222V2.42693H23.1183C25.4851 2.42693 27.1917 4.20298 27.1917 6.49813C27.1917 7.58737 26.603 8.84801 25.8532 9.44401C25.1237 10.0195 24.1601 10.3131 22.9646 10.3131H18.4676V12.8314H22.9646C25.534 12.8314 28.8814 13.9737 29.0185 17.0325C29.1629 18.5875 28.2871 19.9496 27.353 20.6407C26.1017 21.601 24.574 21.8853 23.0343 21.8853L18.4676 21.8839V24.7769L23.2494 24.7783C25.3163 24.7783 27.0256 24.4129 28.4004 23.5835C31.4856 21.722 33.0461 17.7258 31.2207 14.4217C30.4373 13.0036 29.2181 11.9806 27.7389 11.3024C28.5089 10.7681 29.1157 10.0922 29.5615 9.27012C30.0276 8.4275 30.2606 7.50268 30.2606 6.49565C30.2606 5.61193 30.0377 4.67683 29.5919 3.69035C29.1461 2.68332 28.4065 1.83043 27.373 1.13168C26.3598 0.432922 24.9471 0.0149899 23.2044 0.0149899H11.4673Z" fill="black"/>
<path d="M17.3358 24.7769H14.915V21.8839L17.3358 24.7769Z" fill="black"/>
<path d="M17.9429 24.7709L3.44768 7.6809V24.7783H0V0L15.4396 18.2413V2.95302H23.1183C24.6809 2.95302 26.1499 4.00087 26.5322 5.42635H17.9429V24.7709Z" fill="black"/>
<path d="M11.4673 0.0149899V12.8374L14.915 16.9222V2.42693H23.1183C25.4851 2.42693 27.1917 4.20298 27.1917 6.49813C27.1917 7.58737 26.603 8.84801 25.8532 9.44401C25.1237 10.0195 24.1601 10.3131 22.9646 10.3131H18.4676V12.8314H22.9646C25.534 12.8314 28.8814 13.9737 29.0185 17.0325C29.1629 18.5875 28.2871 19.9496 27.353 20.6407C26.1017 21.601 24.574 21.8853 23.0343 21.8853L18.4676 21.8839V24.7769L23.2494 24.7783C25.3163 24.7783 27.0256 24.4129 28.4004 23.5835C31.4856 21.722 33.0461 17.7258 31.2207 14.4217C30.4373 13.0036 29.2181 11.9806 27.7389 11.3024C28.5089 10.7681 29.1157 10.0922 29.5615 9.27012C30.0276 8.4275 30.2606 7.50268 30.2606 6.49565C30.2606 5.61193 30.0377 4.67683 29.5919 3.69035C29.1461 2.68332 28.4065 1.83043 27.373 1.13168C26.3598 0.432922 24.9471 0.0149899 23.2044 0.0149899H11.4673Z" fill="black"/>
</svg>
